<?xml version="1.0" encoding="UTF-8" standalone="no"?>
<svg
  xmlns:dc="http://purl.org/dc/elements/1.1/"
  xmlns:cc="http://creativecommons.org/ns#"
  xmlns:rdf="http://www.w3.org/1999/02/22-rdf-syntax-ns#"
  xmlns="http://www.w3.org/2000/svg"
  viewBox="-20 -20 160 60"
  height="800"
  width="800"
  xml:space="preserve"
  id="svg2"
  version="1.1"><metadata
     id="metadata8"><rdf:RDF><cc:Work
         rdf:about=""><dc:format>image/svg+xml</dc:format><dc:type
  rdf:resource="http://purl.org/dc/dcmitype/StillImage"/></cc:Work></rdf:RDF></metadata>
  <defs
    id="defs6"/>
  <g
    fill="white"
    transform="matrix(1.3333333,0,0,-1.3333333,0,26.546667)"
    id="g10"><g
       transform="scale(0.1)"
       id="g12"><path
         id="path14"
         style="fill-opacity:1;fill-rule:nonzero;stroke:none"
         d="m 15.332,84.2148 c 8.4453,0 15.3321,6.8555 15.3321,15.3516 0,8.4766 -6.8868,15.2926 -15.3321,15.2926 C 6.85547,114.859 0,108.043 0,99.5664 0,91.0703 6.85547,84.2148 15.332,84.2148" /><path
    id="path16"
    style="fill-opacity:1;fill-rule:nonzero;stroke:none"
    d="m 15.332,0 c 8.4453,0 15.3321,6.85547 15.3321,15.3125 0,8.4648 -6.8868,15.3516 -15.3321,15.3516 C 6.85547,30.6641 0,23.7773 0,15.3125 0,6.85547 6.85547,0 15.332,0"/><path
    id="path18"
    style="fill-opacity:1;fill-rule:nonzero;stroke:none"
    d="m 99.5703,84.2148 c 8.4567,0 15.3127,6.8555 15.3127,15.3516 0,8.4766 -6.856,15.2926 -15.3127,15.2926 -8.4765,0 -15.3515,-6.816 -15.3515,-15.2926 0,-8.4961 6.875,-15.3516 15.3515,-15.3516"/><path
    id="path20"
    style="fill-opacity:1;fill-rule:nonzero;stroke:none"
    d="m 99.5703,0 c 8.4567,0 15.3127,6.85547 15.3127,15.3125 0,8.4648 -6.856,15.3516 -15.3127,15.3516 -8.4765,0 -15.3515,-6.8868 -15.3515,-15.3516 C 84.2188,6.85547 91.0938,0 99.5703,0"/><path
    id="path22"
    style="fill-opacity:1;fill-rule:nonzero;stroke:none"
    d="m 183.766,84.2148 c 8.496,0 15.351,6.8555 15.351,15.3516 0,8.4766 -6.855,15.2926 -15.351,15.2926 -8.477,0 -15.313,-6.816 -15.313,-15.2926 0,-8.4961 6.836,-15.3516 15.313,-15.3516"/><path
    id="path24"
    style="fill-opacity:1;fill-rule:nonzero;stroke:none"
    d="m 15.332,168.461 c 8.4453,0 15.3321,6.867 15.3321,15.324 0,8.477 -6.8868,15.332 -15.3321,15.332 C 6.85547,199.117 0,192.262 0,183.785 0,175.328 6.85547,168.461 15.332,168.461"/><path
    id="path26"
    style="fill-opacity:1;fill-rule:nonzero;stroke:none"
    d="m 99.5703,168.461 c 8.4567,0 15.3127,6.867 15.3127,15.324 0,8.477 -6.856,15.332 -15.3127,15.332 -8.4765,0 -15.3515,-6.855 -15.3515,-15.332 0,-8.457 6.875,-15.324 15.3515,-15.324"/><path
    id="path28"
    style="fill-opacity:1;fill-rule:nonzero;stroke:none"
    d="m 183.766,168.461 c 8.496,0 15.351,6.867 15.351,15.324 0,8.477 -6.855,15.332 -15.351,15.332 -8.477,0 -15.313,-6.855 -15.313,-15.332 0,-8.457 6.836,-15.324 15.313,-15.324"/><path
    id="path30"
    style="fill-opacity:1;fill-rule:nonzero;stroke:none"
    d="m 183.766,0 c 8.496,0 15.351,6.85547 15.351,15.3125 0,8.4648 -6.855,15.3516 -15.351,15.3516 -8.477,0 -15.313,-6.8868 -15.313,-15.3516 C 168.453,6.85547 175.289,0 183.766,0"/><path
    id="path32"
    style="fill-opacity:1;fill-rule:nonzero;stroke:none"
    d="m 268.004,84.2148 c 8.465,0 15.332,6.8555 15.332,15.3516 0,8.4766 -6.867,15.2926 -15.332,15.2926 -8.469,0 -15.313,-6.816 -15.313,-15.2926 0,-8.4961 6.844,-15.3516 15.313,-15.3516"/><path
    id="path34"
    style="fill-opacity:1;fill-rule:nonzero;stroke:none"
    d="m 268.004,0 c 8.465,0 15.332,6.85547 15.332,15.3125 0,8.4648 -6.867,15.3516 -15.332,15.3516 -8.469,0 -15.313,-6.8868 -15.313,-15.3516 C 252.691,6.85547 259.535,0 268.004,0"/><path
    id="path36"
    style="fill-opacity:1;fill-rule:nonzero;stroke:none"
    d="m 268.004,168.461 c 8.465,0 15.332,6.867 15.332,15.344 0,8.437 -6.867,15.312 -15.332,15.312 -8.469,0 -15.313,-6.875 -15.313,-15.312 0,-8.477 6.844,-15.344 15.313,-15.344"/><path
    id="path38"
    style="fill-opacity:1;fill-rule:nonzero;stroke:none"
    d="m 363.277,14.4531 9.981,22.9492 c 0.82,1.8946 2.168,2.4415 4.062,1.6211 11.055,-5.1171 21.328,-9.1796 40.762,-9.1796 18.359,0 29.434,8.6406 29.434,22.9492 0,13.4922 -6.211,21.0508 -34.297,34.0195 -34.551,15.9255 -47.52,32.9495 -47.52,59.6675 0,29.434 21.328,52.637 60.215,52.637 24.024,0 36.719,-1.875 54.531,-9.719 1.895,-0.808 2.422,-2.156 1.621,-4.324 l -10.253,-20.508 c -0.813,-1.894 -2.168,-2.695 -4.329,-1.621 -11.609,4.59 -22.136,7.02 -36.171,7.02 -19.442,0 -28.075,-9.988 -28.075,-22.684 0,-12.14 4.317,-18.359 33.477,-31.308 35.098,-16.4847 48.32,-31.5941 48.32,-59.9378 0,-34.5508 -24.023,-55.617231 -64.258,-55.617231 -22.402,0 -38.605,2.160161 -56.152,11.066431 -1.348,0.8203 -1.895,1.6211 -1.348,2.9687"/><path
    id="path40"
    style="fill-opacity:1;fill-rule:nonzero;stroke:none"
    d="m 621.355,2.30469 c -1.89,0 -2.968,1.09375 -2.968,3.24219 V 166.461 c 0,1.348 -0.547,2.148 -1.875,2.148 h -45.891 c -2.168,0 -3.242,1.082 -3.242,3.243 V 194 c 0,2.148 1.074,3.23 3.242,3.23 h 130.93 c 1.894,0 2.969,-1.082 2.969,-3.23 v -22.148 c 0,-2.161 -1.075,-3.243 -2.969,-3.243 h -46.446 c -1.347,0 -1.875,-0.8 -1.875,-2.148 V 5.54688 c 0,-2.14844 -1.093,-3.24219 -3.261,-3.24219 h -28.614"/><path
    id="path42"
    style="fill-opacity:1;fill-rule:nonzero;stroke:none"
    d="m 935.887,62.5156 c 0,-38.0625 -17.285,-62.097631 -70.465,-62.097631 -53.188,0 -70.473,24.035131 -70.473,62.097631 V 193.988 c 0,2.16 1.074,3.235 3.242,3.235 h 28.614 c 1.894,0 2.968,-1.075 2.968,-3.235 V 60.0859 c 0,-21.875 11.875,-31.0429 35.649,-31.0429 23.75,0 35.641,9.4414 35.641,31.0429 V 193.988 c 0,2.16 1.074,3.235 2.968,3.235 h 29.16 c 1.875,0 2.696,-1.075 2.696,-3.235 V 62.5156"/></g></g></svg>
